<svg xmlns="http://www.w3.org/2000/svg" viewBox="0 0 48 48" width="28" height="28">
  <defs>
    <clipPath id="gClip"><path d="M44 20H24v8.5h11.8C33.7 33.1 29.3 36 24 36c-7.2 0-13-5.8-13-13s5.8-13 13-13c3.6 0 6.8 1.4 9.2 3.7l6-6C34.6 3.8 29.7 2 24 2 12.9 2 4 10.9 4 22s8.9 20 20 20c11.1 0 20-9 20-20 0-1.3-.1-2.6-.2-3z"/></clipPath>
  </defs>
  <path fill="#EA4335" d="M24 4c5.2 0 9.9 1.9 13.6 5.3l-6.2 5.1C29.8 13 27.0 12 24 12 18.9 12 14.8 15.1 13.1 19.6l-6.6-5.2C9.1 9.1 16.0 4 24 4z"/>
  <path fill="#34A853" d="M12.9 28.4C14.6 32.9 18.7 36 24 36c5.6 0 10.4-3.2 12.3-7.9H24v-8.1h19.7C43.3 23 44 22 44 20c0-1.4-.1-2.8-.4-4H24v8.4h-7.1v3.9c0 .3.1.6.2.9z"/>
  <path fill="#FBBC05" d="M13.1 19.6C14.0 17.2 15.9 15.2 18.2 14l-6.5-5C8.2 11.1 6.9 15.1 7.6 19.4l5.5.2z"/>
  <path fill="#4285F4" d="M24 12v8.4h11.8c-.5 1.8-1.6 3.5-3.2 4.8L24 36c-5.3 0-9.7-2.9-12-7.2 0 0 0 0 0 0C14.8 15.1 18.9 12 24 12z" clip-path="url(#gClip)"/>
</svg>
