<svg xmlns="http://www.w3.org/2000/svg" viewBox="0 0 48 48" width="28" height="28">
  <circle cx="24" cy="24" r="20" fill="#4285F4"/>
  <path d="M24 8c-6.4 0-11.7 4.6-13 10.5l14 6.4C33.7 15.6 29.6 8 24 8z" fill="#EA4335"/>
  <path d="M24 8c6.4 0 11.7 4.6 13 10.5L10 24.5C14.3 15.6 18.4 8 24 8z" fill="#FBBC05"/>
  <path d="M24 42c-6.4 0-11.7-4.6-13-10.5l14-6.4C33.7 32.4 29.6 42 24 42z" fill="#34A853"/>
  <path d="M24 42c6.4 0 11.7-4.6 13-10.5L10 23.5C14.3 32.4 18.4 42 24 42z" fill="#FFFFFF"/>
</svg>